<?xml version="1.0" encoding="UTF-8" standalone="no"?>
<!DOCTYPE svg PUBLIC "-//W3C//DTD SVG 1.1//EN" "http://www.w3.org/Graphics/SVG/1.1/DTD/svg11.dtd">
<svg width="100%" height="100%" viewBox="0 0 117 116" version="1.1" xmlns="http://www.w3.org/2000/svg" xmlns:xlink="http://www.w3.org/1999/xlink" xml:space="preserve" xmlns:serif="http://www.serif.com/" style="fill-rule:evenodd;clip-rule:evenodd;stroke-linejoin:round;stroke-miterlimit:2;">
    <g id="OBJECTS" transform="matrix(1,0,0,1,-43,-341)">
        <g transform="matrix(-0.0759957,0.997108,0.997108,0.0759957,122.497,381.65)">
            <path d="M-14.767,-69.399L60.526,-69.399C64.833,-69.999 68.261,-65.505 67.203,-60.644L55.688,-7.676L-14.767,-69.399Z" style="fill:rgb(255,131,0);fill-rule:nonzero;"/>
        </g>
        <g transform="matrix(1,0,0,1,54.36,447.23)">
            <path d="M0,-85.552L91.094,-96.526L101.824,-13.245C102.371,-8.995 99.146,-5.067 94.333,-4.119L23.237,9.865C17.599,10.974 12.1,7.59 11.453,2.611L0,-85.552Z" style="fill:white;fill-rule:nonzero;"/>
        </g>
        <g transform="matrix(1,0,0,1,132.2,421.515)">
            <path d="M0,-26.982C-2.232,-30.947 -7.289,-32.032 -11.374,-30.577C-16.7,-28.68 -19.899,-23.614 -21.974,-18.582C-26.203,-28.023 -44.088,-33.34 -47.163,-20.514C-50.624,-6.08 -29.264,2.041 -18.767,5.619C-18.579,6.06 -18.042,6.358 -17.548,5.971C-11.933,1.579 -6.251,-3.23 -2.539,-9.41C0.347,-14.211 3.009,-21.636 0,-26.982" style="fill:rgb(255,82,61);fill-rule:nonzero;"/>
        </g>
        <g transform="matrix(-0.0883673,-0.996088,-0.996088,0.0883673,84.3344,367.609)">
            <path d="M-3.438,-3.756C-5.344,-3.756 -6.889,-2.211 -6.89,-0.304C-6.89,1.602 -5.345,3.148 -3.438,3.147C-1.533,3.147 0.013,1.602 0.013,-0.304C0.014,-2.211 -1.533,-3.756 -3.438,-3.756" style="fill:rgb(142,31,68);fill-rule:nonzero;"/>
        </g>
        <g transform="matrix(-0.0883801,-0.996087,-0.996087,0.0883801,119.068,364.527)">
            <path d="M-3.438,-3.757C-5.344,-3.757 -6.889,-2.212 -6.889,-0.305C-6.89,1.6 -5.344,3.145 -3.438,3.145C-1.532,3.146 0.013,1.601 0.014,-0.306C0.014,-2.212 -1.532,-3.757 -3.438,-3.757" style="fill:rgb(142,31,68);fill-rule:nonzero;"/>
        </g>
        <g transform="matrix(1,0,0,1,109.185,375.096)">
            <path d="M0,-6.242C-2.072,-4.284 -3.491,-2.653 -6.539,-2.437C-9.068,-2.259 -11.514,-2.975 -13.853,-3.835C-14.43,-4.047 -15.07,-3.259 -14.48,-2.853C-9.457,0.595 -2.346,-0.192 1.022,-5.387C1.491,-6.109 0.629,-6.837 0,-6.242" style="fill:rgb(142,31,68);fill-rule:nonzero;"/>
        </g>
        <g transform="matrix(0,-1,-1,0,77.4242,376.45)">
            <path d="M-7.387,-7.386C-11.466,-7.386 -14.773,-4.079 -14.773,0C-14.773,4.08 -11.466,7.387 -7.387,7.387C-3.307,7.387 0,4.08 0,0C0,-4.079 -3.307,-7.386 -7.387,-7.386" style="fill:rgb(255,203,201);fill-rule:nonzero;"/>
        </g>
        <g transform="matrix(0,-1,-1,0,131.447,369.064)">
            <path d="M-7.386,-7.387C-11.466,-7.387 -14.773,-4.079 -14.773,-0C-14.773,4.079 -11.466,7.386 -7.386,7.386C-3.306,7.386 0,4.079 0,-0C0,-4.079 -3.306,-7.387 -7.386,-7.387" style="fill:rgb(255,203,201);fill-rule:nonzero;"/>
        </g>
        <g transform="matrix(1,0,0,1,62.0739,363.566)">
            <path d="M0,-8.35C-1.488,-9.101 -3.249,-8.954 -4.396,-7.687C-5.682,-6.266 -5.765,-4.092 -5.405,-2.311C-5.303,-1.807 -4.605,-1.974 -4.564,-2.424C-4.388,-4.404 -4.345,-8.444 -1.134,-7.401C-0.078,-7.057 0.669,-6.132 1.123,-5.159C1.631,-4.067 2.675,-1.154 0.734,-0.829C-0.19,-0.673 0.198,0.751 1.124,0.585C5.433,-0.189 2.528,-7.075 0,-8.35" style="fill:rgb(142,31,68);fill-rule:nonzero;"/>
        </g>
        <g transform="matrix(1,0,0,1,74.7199,361.034)">
            <path d="M0,-6.694C-1.478,-7.873 -3.331,-8.937 -4.893,-7.351C-6.235,-5.986 -7.252,-3.017 -6.019,-1.328C-5.869,-1.124 -5.471,-1.099 -5.414,-1.407C-5.215,-2.478 -5.432,-3.542 -5.102,-4.613C-4.765,-5.709 -3.93,-7.203 -2.329,-6.706C-1.829,-6.55 -1.046,-5.924 -0.695,-5.624C0.305,-4.768 1.248,-3.498 1.133,-2.105C0.987,-0.335 -0.579,0.769 -2.245,0.814C-3.143,0.838 -3.147,2.199 -2.245,2.212C-0.249,2.243 1.639,0.987 2.27,-0.947C2.997,-3.173 1.704,-5.335 0,-6.694" style="fill:rgb(142,31,68);fill-rule:nonzero;"/>
        </g>
        <g transform="matrix(1,0,0,1,86.671,358.222)">
            <path d="M0,-5.826C-3.539,-9.718 -8.113,-3.814 -5.598,-0.207C-5.24,0.307 -4.523,-0.13 -4.77,-0.691C-5.294,-1.886 -5.375,-3.215 -4.725,-4.388C-3.638,-6.349 -1.396,-5.981 -0.299,-4.2C1.386,-1.467 -0.11,2.92 -3.871,2.087C-4.685,1.906 -5.034,3.139 -4.217,3.342C-2,3.892 0.267,2.749 1.265,0.693C2.316,-1.474 1.562,-4.107 0,-5.826" style="fill:rgb(142,31,68);fill-rule:nonzero;"/>
        </g>
        <g transform="matrix(1,0,0,1,96.3663,359.24)">
            <path d="M0,-8.35C-1.488,-9.101 -3.248,-8.954 -4.396,-7.687C-5.682,-6.266 -5.765,-4.092 -5.404,-2.311C-5.303,-1.807 -4.605,-1.974 -4.564,-2.424C-4.388,-4.403 -4.345,-8.444 -1.133,-7.4C-0.077,-7.057 0.669,-6.132 1.123,-5.159C1.632,-4.067 2.675,-1.154 0.735,-0.829C-0.189,-0.673 0.198,0.751 1.125,0.585C5.433,-0.189 2.528,-7.075 0,-8.35" style="fill:rgb(142,31,68);fill-rule:nonzero;"/>
        </g>
        <g transform="matrix(1,0,0,1,109.118,357.024)">
            <path d="M0,-6.694C-1.478,-7.873 -3.331,-8.937 -4.893,-7.35C-6.236,-5.986 -7.252,-3.017 -6.019,-1.328C-5.87,-1.123 -5.472,-1.099 -5.414,-1.407C-5.215,-2.478 -5.432,-3.542 -5.103,-4.613C-4.765,-5.709 -3.93,-7.203 -2.329,-6.706C-1.829,-6.55 -1.047,-5.924 -0.695,-5.623C0.305,-4.767 1.248,-3.498 1.133,-2.105C0.987,-0.334 -0.579,0.769 -2.245,0.814C-3.144,0.838 -3.147,2.199 -2.245,2.212C-0.249,2.243 1.639,0.988 2.27,-0.947C2.997,-3.173 1.704,-5.335 0,-6.694" style="fill:rgb(142,31,68);fill-rule:nonzero;"/>
        </g>
        <g transform="matrix(1,0,0,1,120.542,354.212)">
            <path d="M0,-5.826C-3.539,-9.718 -8.114,-3.813 -5.599,-0.207C-5.24,0.307 -4.523,-0.13 -4.77,-0.691C-5.295,-1.886 -5.375,-3.214 -4.726,-4.388C-3.639,-6.349 -1.397,-5.981 -0.299,-4.2C1.385,-1.467 -0.11,2.92 -3.871,2.087C-4.686,1.906 -5.034,3.14 -4.217,3.342C-2,3.892 0.267,2.749 1.265,0.693C2.316,-1.474 1.562,-4.107 0,-5.826" style="fill:rgb(142,31,68);fill-rule:nonzero;"/>
        </g>
        <g transform="matrix(1,0,0,1,130.342,355.125)">
            <path d="M0,-8.35C-1.488,-9.101 -3.248,-8.954 -4.396,-7.686C-5.681,-6.266 -5.765,-4.092 -5.404,-2.31C-5.303,-1.807 -4.604,-1.974 -4.564,-2.424C-4.387,-4.403 -4.345,-8.444 -1.133,-7.4C-0.077,-7.057 0.669,-6.132 1.123,-5.159C1.632,-4.067 2.675,-1.154 0.735,-0.829C-0.189,-0.673 0.198,0.751 1.125,0.585C5.433,-0.189 2.529,-7.075 0,-8.35" style="fill:rgb(142,31,68);fill-rule:nonzero;"/>
        </g>
        <g transform="matrix(1,0,0,1,142.25,352.91)">
            <path d="M0,-6.695C-1.478,-7.874 -3.331,-8.938 -4.893,-7.351C-6.235,-5.987 -7.252,-3.018 -6.019,-1.329C-5.869,-1.124 -5.471,-1.1 -5.414,-1.408C-5.215,-2.479 -5.432,-3.543 -5.102,-4.614C-4.765,-5.71 -3.93,-7.204 -2.329,-6.707C-1.829,-6.551 -1.046,-5.925 -0.695,-5.624C0.305,-4.768 1.248,-3.499 1.133,-2.106C0.988,-0.335 -0.579,0.768 -2.245,0.814C-3.143,0.838 -3.147,2.198 -2.245,2.211C-0.249,2.243 1.639,0.987 2.27,-0.947C2.997,-3.174 1.704,-5.336 0,-6.695" style="fill:rgb(142,31,68);fill-rule:nonzero;"/>
        </g>
        <g transform="matrix(0.926683,-0.375843,-0.375843,-0.926683,74.5773,451.716)">
            <path d="M-2.211,-0.581C-3.503,3.74 -3.137,7.314 -1.68,11.532C-1.572,11.845 -2.008,12.139 -2.211,11.836C-4.657,8.198 -4.827,3.002 -3.088,-0.952C-2.835,-1.526 -2.04,-1.156 -2.211,-0.581" style="fill:rgb(142,31,68);fill-rule:nonzero;"/>
        </g>
        <g transform="matrix(1,0,0,1,77.3229,447.398)">
            <path d="M0,4.618C-1.218,4.153 -2.317,3.386 -3.159,2.388C-3.966,1.43 -4.354,0.275 -4.92,-0.818C-5.06,-1.086 -5.414,-0.927 -5.44,-0.677C-5.75,2.227 -2.804,4.824 -0.253,5.536C0.348,5.704 0.562,4.833 0,4.618" style="fill:rgb(142,31,68);fill-rule:nonzero;"/>
        </g>
        <g transform="matrix(-0.99589,0.0905706,0.0905706,0.99589,148.841,409.644)">
            <path d="M1.072,-20.747C1.105,-21.138 1.682,-21.017 1.665,-20.64C1.356,-13.777 1.181,-6.924 1.072,-0.056C1.064,0.409 0.347,0.491 0.339,0.011C0.207,-6.909 0.475,-13.85 1.072,-20.747" style="fill:rgb(142,31,68);fill-rule:nonzero;"/>
        </g>
        <g transform="matrix(-0.99821,0.0598011,0.0598011,0.99821,150.628,415.417)">
            <path d="M0.292,-9.665C0.383,-10.084 1,-9.947 0.939,-9.527C0.483,-6.372 0.253,-3.239 0.292,-0.05C0.297,0.416 -0.409,0.464 -0.436,-0.006C-0.626,-3.244 -0.399,-6.495 0.292,-9.665" style="fill:rgb(142,31,68);fill-rule:nonzero;"/>
        </g>
        <g transform="matrix(-0.992851,0.119364,0.119364,0.992851,62.7888,385.436)">
            <path d="M0.779,-11.136C0.833,-11.534 1.512,-11.549 1.509,-11.125C1.475,-7.464 1.127,-3.762 0.779,-0.119C0.726,0.431 -0.086,0.291 -0.06,-0.245C0.116,-3.865 0.29,-7.543 0.779,-11.136" style="fill:rgb(142,31,68);fill-rule:nonzero;"/>
        </g>
        <g transform="matrix(-0.994899,0.100879,0.100879,0.994899,61.3208,390.862)">
            <path d="M0.653,-8.906C0.689,-9.299 1.281,-9.191 1.254,-8.804C1.053,-5.908 0.951,-3.013 0.653,-0.123C0.599,0.407 -0.184,0.256 -0.153,-0.26C0.02,-3.154 0.384,-6.021 0.653,-8.906" style="fill:rgb(142,31,68);fill-rule:nonzero;"/>
        </g>
        <g transform="matrix(-0.26262,-0.964899,-0.964899,0.26262,56.1634,438.025)">
            <path d="M-2.068,-2.553C-1.548,-1.284 -1.335,0.248 -1.418,1.614C-1.439,1.967 -1.989,2.085 -2.068,1.701C-2.345,0.364 -2.627,-0.997 -2.83,-2.345C-2.905,-2.85 -2.262,-3.023 -2.068,-2.553" style="fill:rgb(142,31,68);fill-rule:nonzero;"/>
        </g>
        <g transform="matrix(-0.46481,-0.88541,-0.88541,0.46481,54.7961,436.061)">
            <path d="M-1.684,-2.867C-1.417,-1.554 -1.246,-0.233 -1.073,1.095C-1.022,1.487 -1.589,1.626 -1.684,1.227C-1.995,-0.072 -2.302,-1.366 -2.52,-2.686C-2.608,-3.224 -1.795,-3.411 -1.684,-2.867" style="fill:rgb(142,31,68);fill-rule:nonzero;"/>
        </g>
        <g transform="matrix(-0.623235,-0.782035,-0.782035,0.623235,145.794,437.495)">
            <path d="M-2.113,-4.56C-2.388,-2.535 -2.127,-0.743 -1.531,1.194C-1.428,1.527 -1.897,1.9 -2.113,1.542C-3.234,-0.317 -3.428,-2.674 -2.865,-4.745C-2.747,-5.176 -2.054,-4.992 -2.113,-4.56" style="fill:rgb(142,31,68);fill-rule:nonzero;"/>
        </g>
        <g transform="matrix(-0.774692,-0.632339,-0.632339,0.774692,146.757,434.424)">
            <path d="M-0.944,-3.37C-0.598,-3.59 -0.098,-3.136 -0.421,-2.808C-1.237,-1.983 -1.438,-0.853 -0.944,0.206C-0.776,0.568 -1.291,0.766 -1.518,0.51C-2.519,-0.621 -2.218,-2.561 -0.944,-3.37" style="fill:rgb(142,31,68);fill-rule:nonzero;"/>
        </g>
    </g>
</svg>
